<svg xmlns="http://www.w3.org/2000/svg" width="71" height="84" viewBox="0 0 71 84">
  <path fill="#A4C439" d="M5.17611356,27.1696745 C2.31757858,27.1682625 0.000705288672,29.4941379 0,32.3546891 L0.00352644336,54.0638012 C0.00423173203,56.9342408 2.3225156,59.2509342 5.18175587,59.250228 C8.04240672,59.250228 10.3599853,56.9335345 10.3571667,54.0645075 L10.3571667,32.3518639 C10.3557536,29.4920189 8.03605913,27.1682625 5.17611356,27.1696745 L5.17611356,27.1696745 Z M46.9242659,7.67413529 L50.5374598,1.06661501 C50.7300036,0.72122993 50.6037569,0.281905759 50.254639,0.0862581782 C49.9019947,-0.100913695 49.4668316,0.026221917 49.2799301,0.373725923 L45.6300612,7.05046448 C42.5592343,5.68163773 39.1223626,4.9145862 35.4858942,4.91811775 C31.8592999,4.9145862 28.4238388,5.6795188 25.3657071,7.04057616 L21.7116065,0.380789013 C21.5218838,0.0297534618 21.0846048,-0.0973821503 20.7397187,0.0940275767 C20.3884849,0.284024686 20.2594171,0.724055165 20.4547821,1.06873394 L24.0693865,7.67201637 C16.9671296,11.3398788 12.1683455,18.3252743 12.1725744,26.3454125 L58.8048539,26.3397621 C58.8062642,18.3224491 54.0159435,11.3511797 46.9242659,7.67413529 L46.9242659,7.67413529 Z M24.8797632,17.8852439 C23.8070191,17.8831249 22.9310506,17.0087145 22.9310506,15.9280618 C22.9310506,14.8523532 23.804198,13.9680544 24.881879,13.9687603 C25.9630866,13.9680544 26.8376445,14.8523532 26.8390551,15.9280618 C26.8390551,17.0073018 25.9623813,17.8845376 24.8797632,17.8852439 L24.8797632,17.8852439 Z M46.1131839,17.881714 C45.0355028,17.8831249 44.1581237,17.0080081 44.1581237,15.9245302 C44.1623555,14.8509406 45.0340923,13.9666418 46.1138892,13.9624039 C47.1866333,13.9659355 48.0661283,14.8509406 48.0654268,15.9252365 C48.0675388,17.0058892 47.190865,17.8824186 46.1131839,17.881714 L46.1131839,17.881714 Z M12.3630051,28.1493256 L12.3707633,61.7943527 C12.3686474,64.8547894 14.8406842,67.3254582 17.8945842,67.3254582 L21.6558887,67.3268708 L21.6601204,78.8142796 C21.6594151,81.6748309 23.9812254,84 26.8334128,84 C29.6940637,84 32.0116422,81.672712 32.0123475,78.8107481 L32.0095264,67.3261645 L38.9982318,67.3240455 L39.001053,78.8107481 C39.001053,81.6691804 41.3235686,83.9992937 44.1764612,83.9936432 C47.0371121,83.9957621 49.3561012,81.6684741 49.355396,78.8065102 L49.3518695,67.3226329 L53.1265745,67.3198077 C56.1734215,67.3212203 58.6518059,64.8477264 58.6532165,61.7865833 L58.6468689,28.1415562 L12.3630051,28.1493256 Z M70.9964736,32.3469197 C70.9957683,29.4828369 68.678895,27.1619057 65.8189494,27.1633157 C62.9604144,27.1604931 60.6442464,29.4849559 60.6442464,32.3490387 L60.6484782,54.0595634 C60.6477729,56.9257651 62.9639409,59.2424585 65.8245917,59.2431648 C68.683832,59.2424585 70.9992947,56.9257651 71,54.0567381 L70.9964736,32.3469197 Z"/>
</svg>
