<svg xmlns="http://www.w3.org/2000/svg" width="84" height="84" viewBox="0 0 84 84">
  <path fill="#494949" fill-rule="evenodd" d="M42.0635595,83.999955 C65.239119,83.9648597 84.0000018,65.1718669 84.0000018,41.9901802 C84.0000018,19.1852835 65.3256681,0.40374944 43.0156,0.00673811543 C19.5851263,-0.409820456 0.00608915578,18.5429205 1.83435579e-06,41.5257646 C-0.00675798147,65.1705188 18.6702749,84.0336121 42.0635595,83.999955 Z M41.9952668,2.04032355 C64.2458324,2.03291136 81.9742056,20.0541249 81.9674459,42.6716377 C81.9600062,64.0246457 63.7616982,81.8874592 42.0114948,81.8921784 C19.8528877,81.8968958 2.03390835,63.9875734 2.03390835,41.7138226 C2.03526068,20.0143564 20.1321439,2.04774031 41.9952668,2.04032355 Z M25.20203,23.1149542 C25.5658068,24.3235133 24.5475021,24.7441161 23.4649618,24.8283715 C22.3256235,24.915997 21.1869615,25.0016005 19.8643825,25.1020329 C24.2297045,38.0665759 28.5294385,50.8390166 32.9312734,63.9087103 C33.245014,63.3971117 33.3741616,63.2528665 33.4309595,63.0843558 C35.8475736,55.8842285 38.277711,48.6888195 40.6327941,41.4684709 C40.8478146,40.8099309 40.7409805,39.9377193 40.5056751,39.2609801 C39.2595028,35.6750714 37.7665302,32.1673516 36.6738474,28.5383041 C35.9266849,26.0537816 34.9354268,24.4461891 31.9893754,24.7340054 C31.4876609,24.7832106 30.8750553,23.7067639 30.3131621,23.1506784 C30.992708,22.7462526 31.6675208,22.0021092 32.3531523,21.9919985 C38.3520892,21.9010027 44.3530546,21.9010027 50.3513154,21.9973909 C51.0396515,22.0088496 51.7144643,22.7725403 52.3940102,23.1870768 C51.7989849,23.7290073 51.2857756,24.5419032 50.5900017,24.7515306 C49.4736531,25.087204 48.2355947,25.0238439 46.8994924,25.1424755 C51.2695476,38.1009521 55.5496728,50.7945298 59.9826113,63.9403904 C61.9644513,57.3779078 63.8083536,51.3519634 65.6015435,45.310516 C67.2013501,39.917498 66.2479573,34.8810487 63.3553229,30.1310677 C62.4857746,28.7027706 61.4174337,27.3169382 60.9245093,25.7592248 C60.3646446,23.9871658 59.899443,21.9697551 60.1962795,20.1923037 C60.7000225,17.1800056 63.0185927,15.6843042 66.1559989,15.3978359 C48.9868142,-0.486661358 22.0064736,5.19956536 12.0648179,22.4584363 C15.8919124,22.2825111 19.5459087,22.0513143 23.2026097,22.0014351 C23.8936505,21.9926726 25.0397503,22.5750457 25.20203,23.1149542 Z M32.0427925,75.6707606 C31.963005,75.9033055 31.9582718,76.162138 31.8953885,76.5483646 C39.2946634,78.5934111 46.5512674,78.4457956 53.9782651,75.9511625 L42.6322144,44.9721464 C39.0012077,55.4946316 35.5189573,65.581011 32.0427925,75.6707606 Z M26.3251402,74.2700993 L9.23100987,27.5252175 C1.51934669,42.5415474 7.38575526,65.4522688 26.3251402,74.2700993 Z M78.0030879,44.2333953 C78.5453723,37.1330264 76.0881883,27.3021093 73.9663821,25.949979 C73.7297243,28.5618956 73.8947086,31.467695 73.142813,34.1153359 C71.3732889,40.3536038 69.2095605,46.4833508 67.1256196,52.6299489 C64.8604665,59.3110631 62.5060595,65.9618453 60.190194,72.6261084 C71.0710431,66.1964123 77.0503712,56.7065609 78.0030879,44.2333953 L78.0030879,44.2333953 Z"/>
</svg>
