<svg width="128" height="128" xmlns="http://www.w3.org/2000/svg">

 <g>
  <title>background</title>
  <rect fill="none" id="canvas_background" height="402" width="582" y="-1" x="-1"/>
 </g>
 <g>
  <title>Layer 1</title>
  <g stroke="null" id="svg_1">
   <g stroke="null" id="svg_2">
    <g stroke="null" id="svg_3">
     <circle stroke="null" id="svg_4" fill="#F0DB4F" r="61.5" cy="64.500001" cx="63.500001"/>
    </g>
   </g>
   <g stroke="null" id="Layer_1_1_">
    <g stroke="null" id="svg_5">
     <g stroke="null" id="svg_6">
      <path stroke="null" id="svg_7" fill="#323330" d="m44.312001,40.638001l10.701,0l0,30.135c0,13.53 -6.519,18.327 -16.851,18.327c-2.583,0 -5.781,-0.369 -7.872,-1.107l1.23,-8.733c1.476,0.492 3.444,0.861 5.535,0.861c4.551,0 7.38,-2.091 7.38,-9.348l-0.123,-30.135l0,0z"/>
      <path stroke="null" id="svg_8" fill="#323330" d="m64.484001,77.292001c2.829,1.476 7.38,2.952 11.931,2.952c4.92,0 7.503,-2.091 7.503,-5.289c0,-2.952 -2.214,-4.674 -7.995,-6.642c-7.872,-2.829 -13.161,-7.257 -13.161,-14.268c0,-7.995 6.888,-14.145 18.081,-14.145c5.412,0 9.348,1.107 12.177,2.46l-2.46,8.61c-1.845,-0.861 -5.289,-2.214 -9.84,-2.214c-4.674,0 -6.888,2.214 -6.888,4.551c0,3.075 2.583,4.428 8.856,6.765c8.364,3.075 12.3,7.503 12.3,14.268c0,7.995 -6.027,14.76 -19.188,14.76c-5.412,0 -10.824,-1.476 -13.53,-2.952l2.214,-8.856z"/>
     </g>
    </g>
   </g>
  </g>
 </g>
</svg>