<svg xmlns="http://www.w3.org/2000/svg" width="89" height="88" viewBox="0 0 89 88">
  <g fill="none" fill-rule="evenodd">
    <path fill="#347AB4" d="M23.0596084,9.00967561 C23.0596084,-2.0130722 63.4680749,-4.32786934 65.3838338,10.5286063 L65.3838338,10.5286063 L65.3838338,31.3779959 C65.3838338,38.3858226 59.3395609,42.5260824 54.2357473,42.5260824 L54.2357473,42.5260824 L41.3939499,42.5252469 C23.9786578,42.5143826 19.1138914,42.6744638 20.1541424,65.4179533 L20.1541424,65.4179533 L13.3586979,65.4179533 C-3.72789603,65.4179533 -4.9705488,23.5592392 13.3586979,22.840357 L13.3586979,22.840357 L44.373015,22.840357 L44.373015,19.8590373 L23.0576335,19.8590373 C23.0576335,19.8590373 23.0576335,15.2053215 23.0586741,11.4575457 Z M32.4213101,6.92524049 L32.2467984,6.92581388 C30.3844732,6.97138368 28.3083219,8.37666071 28.3083219,10.8292386 C28.3083219,13.2818166 30.1751458,14.6085665 32.0419698,14.5628866 C33.9087938,14.5172067 35.9629205,13.1873818 35.9629205,10.6419359 C35.9629205,8.09649011 34.1091236,6.88024408 32.2467984,6.92581388 Z"/>
    <path fill="#FFCA1D" d="M45.9071323,31.3344722 C45.9071323,20.3117244 86.3155987,17.9969272 88.2313576,32.8534028 L88.2313576,32.8534028 L88.2313576,53.7027925 C88.2313576,61.9021225 82.9196976,64.850879 77.0832712,64.850879 L77.0832712,64.850879 L65.3886964,64.8509019 C48.828036,64.8531682 42.0695225,65.0797977 43.0016662,87.7427498 L43.0016662,87.7427498 L36.2062218,87.7427498 C19.2492018,87.7427498 17.8769751,45.8840358 36.2062218,45.1651535 L36.2062218,45.1651535 L67.2205388,45.1651535 L67.2205388,42.1838339 L45.9051573,42.1838339 C45.9051573,42.1838339 45.9051573,35.5884316 45.9069131,31.7777829 Z M55.2688339,29.2500371 L55.0943223,29.2506105 C53.231997,29.2961803 51.1558457,30.7014573 51.1558457,33.1540352 C51.1558457,35.6066131 53.0226697,36.933363 54.8894937,36.8876832 C56.7563177,36.8420033 58.8104443,35.5121784 58.8104443,32.9667325 C58.8104443,30.4212867 56.9566475,29.2050407 55.0943223,29.2506105 Z" transform="rotate(-180 55.6 55.065)"/>
  </g>
</svg>
