<svg xmlns="http://www.w3.org/2000/svg" width="84" height="84" viewBox="0 0 84 84">
  <g fill="#DC7361" fill-rule="evenodd">
    <path d="M10.6268799,0 C9.87524859,0.0590033604 9.13695588,0.0496164622 8.40933407,0.250093789 C6.81736956,0.689266529 5.40280873,1.39127242 4.15498067,2.47344769 C3.42135647,3.1090748 2.78110263,3.79431837 2.23755379,4.60159162 C1.39855449,5.84803761 0.826994547,7.18768209 0.54021418,8.69562025 C0.654926327,8.89743856 0.775640853,9.10931426 0.903691622,9.32454243 C1.71668062,10.6910066 2.53033654,12.0480839 3.34532633,13.4132071 L5.48750898,16.9943088 C6.14643689,18.0979398 6.80403094,19.2022414 7.46162499,20.3058724 L10.5348434,25.4606205 C11.2331203,26.6326418 11.9320641,27.8053336 12.6310078,28.9766844 C13.6494116,30.6830884 14.6704831,32.3881514 15.687553,34.0952259 L19.4283695,40.3784133 C20.506797,42.1880732 21.5872254,43.9963921 22.6676538,45.804711 L22.8117109,46.0152457 C22.9684397,46.0655327 23.0931558,46.0226211 23.2225404,45.9917785 C24.6457714,45.6484862 26.0690023,45.3072054 27.4922332,44.9652541 C29.8004817,44.4107566 32.1087302,43.8582706 34.4169787,43.3031026 L38.0324121,42.4334736 C40.366004,41.8729416 42.7002628,41.3137507 45.0338547,40.7518778 C47.3927899,40.1846409 49.7510582,39.6147221 52.1106604,39.0468148 C53.3031332,38.7591734 54.495606,38.472873 55.6887457,38.1865726 C57.9969942,37.6327456 60.3052427,37.0802596 62.6134912,36.5277736 L70.1551479,34.7221366 L70.5626428,34.6115053 L70.4512653,34.3895722 L68.393116,31.4648829 L66.36031,28.5717068 L64.1861147,25.4847583 L62.1079574,22.5258738 L60.0484742,19.601855 L57.9222979,16.5799443 C57.2280226,15.59432 56.5324135,14.6100366 55.8374713,13.6250828 L54.7390358,12.0655167 C54.5709692,11.8261508 54.436916,11.5680111 54.3475473,11.2884156 C54.1301277,10.6105475 54.3782261,10.1593059 54.7717154,9.82607099 C55.0264831,9.60950184 55.3199328,9.45059506 55.637392,9.35672608 C56.0795673,9.22598 56.5257442,9.10059786 56.9779235,9.01477479 C57.8842828,8.84245815 58.7966446,8.69629074 59.7063386,8.54408889 L62.7902279,8.03853737 C63.4404857,7.93058804 64.0900766,7.81727477 64.7403344,7.70664347 C65.6240181,7.55645309 66.5077018,7.40559223 67.3920524,7.25741333 C68.2503927,7.1125869 69.108733,6.96910146 69.9670733,6.826957 L72.776854,6.36498751 L74.7269605,6.03577558 C75.4685878,5.91106393 76.2095483,5.78702277 76.9505087,5.6649931 C77.8748752,5.51346174 78.7985748,5.3605894 79.7229412,5.21509247 C80.2738263,5.12859891 80.8247114,5.09842674 81.3715949,5.25666302 C81.7817575,5.37534024 82.1552389,5.56844214 82.50271,5.81518347 L82.9835673,6.15244131 C83.0315864,6.04113952 82.9622255,5.98079517 82.9302128,5.91709836 C82.2366045,4.50571116 81.2908962,3.29211932 80.0890864,2.28168677 C78.9719768,1.34165596 77.7174795,0.65037795 76.3302628,0.209864225 C75.5106045,-0.0509574477 74.6682705,0.0704017369 73.8105972,0.00536394186 M36.4737942,84 C36.4324444,84 36.3957632,83.6982783 36.3490781,83.6184896 C35.3486814,81.9020282 34.3376139,80.0595142 33.349222,78.3370184 C32.1040617,76.1659629 30.8702392,73.9882025 29.643086,71.8064192 C28.3325664,69.4744454 27.0333846,67.1357668 25.732869,64.7984291 C24.4963788,62.5764162 23.2638901,60.3523918 22.0320684,58.1283674 C21.2884403,56.7840295 20.5494806,55.4370096 19.8065194,54.0920012 L19.6091078,53.784245 L19.2476311,53.8559877 C18.532681,54.0417142 17.8190648,54.2287817 17.1054485,54.4178606 C16.1117212,54.6806938 15.1186608,54.9482204 14.1242665,55.2090421 C11.8920482,55.7930412 9.65982985,56.3736879 7.42761151,56.9556756 C5.15737809,57.5483912 2.79177353,58.1424478 0.520873178,58.7324814 C0.382818443,58.7680175 0.666931086,58.7800864 0,58.8035536 L0,72.9811224 C0.274775607,73.4209657 0.248765295,73.2137834 0.266105503,73.3586098 C0.318793059,73.7783383 0.404160238,74.2014192 0.477522658,74.6171247 C0.752298265,76.1659629 1.37054338,77.584055 2.26423104,78.875424 C3.57475062,80.7702365 5.32010927,82.1246318 7.45829034,82.9533608 C8.22192643,83.2483776 9.01890908,83.4562304 9.83389887,83.5568043 L10.6615603,83.7767259"/>
    <path d="M2.64953183,51.126206 C5.27440756,50.5008711 7.89994966,49.8762037 10.5248254,49.2522036 C11.6776649,48.9785778 12.8311709,48.708289 13.9840104,48.4333285 C14.5604302,48.2958483 15.1381827,48.1650419 15.7099379,48.0102098 C16.2190531,47.8727295 16.281693,47.7038824 16.0198051,47.2440577 C15.6413006,46.5793475 15.2561322,45.9186415 14.872963,45.2559333 L11.4984084,39.4363815 L8.12518652,33.6161623 C6.98100992,31.6420529 5.83550056,29.6679434 4.69065758,27.6945014 C3.71041077,26.0060305 2.73016396,24.3175596 1.75058353,22.6290887 C1.32676506,21.8989752 0.812318738,21.1668596 0.386501122,20.4374135 C0.307201754,20.3046049 0.666381245,20.1457685 0,20.0750263 L0,51.7061591 C0,51.6848029 0.301870704,51.6667837 0.403827035,51.6420906 L2.64953183,51.126206 Z M83.446925,73.7356987 C82.4180324,74.1020902 81.3884734,74.4711513 80.3602471,74.8402123 C78.017917,75.6811108 75.675587,76.5220094 73.3332569,77.3635753 C72.0318143,77.8314085 70.7330373,78.3045808 69.4309283,78.7704119 C66.7773982,79.7187586 64.1225353,80.6637684 61.4683388,81.610113 C59.9303309,82.1586991 58.3916566,82.836757 56.8543151,83.3880127 C56.4331621,83.5395079 56.0180066,84 55.6008519,84 L73.2532911,84 L73.6331284,83.7817668 C74.0822694,83.7624128 74.5240802,83.6289368 74.9652246,83.5481839 C76.7771152,83.2164961 78.3997535,82.4316575 79.8371378,81.2844316 C80.9413316,80.4028229 81.8396135,79.3250045 82.5433121,78.0956909 C83.2670021,76.8303389 83.696818,75.4615429 83.9033962,74.0240068 C83.9213885,73.8998742 83.9600386,73.759057 83.8560831,73.6309201 C83.7094793,73.6195747 83.5802013,73.6883148 83.446925,73.7356987 L83.446925,73.7356987 Z M81.9309077,49.996332 C81.1525744,48.9298591 80.372242,47.8653883 79.5952414,46.798248 C78.523034,45.3253408 77.4528257,43.8510989 76.3819511,42.3775243 C75.9468041,41.779552 75.5056597,41.1862513 75.0811749,40.5816052 C74.9532297,40.3994106 74.8072922,40.3506918 74.6080442,40.4047496 L74.494093,40.4374512 C72.5229373,40.9172973 70.5511152,41.3958086 68.5792931,41.8743199 L65.0461397,42.7332377 C62.7424598,43.2931694 60.4381134,43.8537684 58.1344334,44.4143674 C55.856076,44.96896 53.5777185,45.52422 51.2986946,46.0774779 L44.1937378,47.8006525 C41.8634026,48.3672579 39.5344001,48.9358655 37.2047313,49.5031384 L30.4462927,51.1462274 C29.2554694,51.4358702 28.0646461,51.7241783 26.8751556,52.0151559 C26.6998973,52.0578682 26.5113115,52.0685463 26.3247247,52.2100308 L26.4839898,52.5136886 C27.4815625,54.2395328 28.4791353,55.9647095 29.4793735,57.6892189 C30.6115553,59.6419722 31.7444034,61.5940581 32.879917,63.5448093 C34.1287155,65.6891005 35.3808458,67.8320571 36.6316434,69.975681 C37.3506688,71.2069967 38.0650295,72.4396472 38.7900523,73.667626 C39.5957072,75.0317503 40.4040277,76.3932051 41.224343,77.7486535 C41.4702376,78.153753 41.7494514,78.5408333 42.0306643,78.9225745 C42.2192502,79.1775136 42.4524836,79.3950794 42.7276991,79.561257 C43.0115775,79.7327736 43.3174465,79.7868313 43.639975,79.714087 C43.8065703,79.6760463 43.9698337,79.6213212 44.131098,79.5652613 L44.7241773,79.3450259 C46.8812534,78.6062365 49.0376631,77.8674471 51.1954055,77.1313271 C52.8786846,76.5573805 54.5639627,75.9861034 56.2485745,75.4154937 C57.9205251,74.8475535 59.5938084,74.2822828 61.2664253,73.7170121 L66.2469587,72.0325455 C67.9448981,71.4579315 69.6421712,70.8833175 71.3394442,70.3073687 C73.422552,69.5992788 75.5049934,68.8885193 77.5894339,68.1817641 C79.5985733,67.5010367 81.6097119,66.8243136 83.6195178,66.1449209 C83.7427983,66.1035434 83.8787401,66.0861915 83.9806964,65.9507134 L83.9933577,65.6577337 C83.994024,61.4832731 83.9926913,57.3081451 83.9973559,53.1336844 C83.9973559,52.9107796 83.938048,52.730587 83.8047718,52.5510619 C83.1730423,51.7041569 82.5539742,50.848576 81.9309077,49.996332 L81.9309077,49.996332 Z M81.5850558,10.6623016 C81.1172562,10.069001 80.5215114,9.88079988 79.7911575,10.0716705 C79.4732937,10.155093 79.1467669,10.207816 78.8229056,10.2672128 C77.7606939,10.4620877 76.6971494,10.6536257 75.6349377,10.8464984 C74.0796039,11.1294675 72.5249364,11.415106 70.9696026,11.6954055 C69.7381301,11.9169756 68.5059911,12.1352088 67.2738522,12.3514399 L62.3306361,13.2176989 C62.1233916,13.2537374 61.9141479,13.2897759 61.7142335,13.3538443 C61.4230249,13.4472775 61.3390609,13.6301396 61.4723371,13.9044327 C61.5809572,14.1286723 61.7162326,14.3429012 61.8628365,14.5444499 C62.8850653,15.9552908 63.9119588,17.3627948 64.9388523,18.7709661 C66.3542461,20.712374 67.7703062,22.6531144 69.1863664,24.5931875 C70.3845199,26.2349418 71.5840061,27.8766961 72.782826,29.517783 C73.7250891,30.8071608 74.6673521,32.0965385 75.610948,33.3852489 L75.7968683,33.6108233 L83.9740326,31.5866604 L83.9933577,31.1622068 C83.994024,25.4821374 83.9926913,19.8020679 83.9973559,14.1213311 C83.9973559,13.8703963 83.9367153,13.6688476 83.7787829,13.4699684 C83.0910775,12.6003725 82.4160333,11.720766 81.735658,10.8451637 L81.5850558,10.6623016 L81.5850558,10.6623016 Z M83.7847803,38.1857118 C82.5479767,38.4833632 81.3065085,38.7663322 80.0397177,39.1020242 C80.1736604,39.3402788 83.6481722,44.0372978 83.8500857,44.2602027 L83.9766981,44.3302776 L83.9906921,44.0439716 L83.9913585,42.0665253 C83.9920249,40.9192994 83.9946904,39.7720736 83.9920249,38.6248477 C83.9920249,38.4853653 84.0313414,38.3352049 83.9353825,38.1937203 L83.7847803,38.1857118 L83.7847803,38.1857118 Z"/>
  </g>
</svg>
